HIERARCHY
ROOT Hips
{
	OFFSET 0.000000 0.000000 0.000000
	CHANNELS 6 Xposition Yposition Zposition Xrotation Yrotation Zrotation
	JOINT LeftUpLeg_virtual
	{
		OFFSET 0.000000 0.000000 0.000000
		CHANNELS 3 Xrotation Yrotation Zrotation
		JOINT LeftUpLeg
		{
			OFFSET 13.026900 -6.336304 -1.092800
			CHANNELS 3 Xrotation Yrotation Zrotation
			JOINT LeftLeg
			{
				OFFSET 0.524474 -46.096886 9.782700
				CHANNELS 3 Xrotation Yrotation Zrotation
				JOINT LeftFoot
				{
					OFFSET -0.524474 -53.427422 -12.948200
					CHANNELS 3 Xrotation Yrotation Zrotation
					JOINT LeftToeBase
					{
						OFFSET 0.192200 -14.009700 16.364100
						CHANNELS 3 Xrotation Yrotation Zrotation
						JOINT LeftToe_End
						{
							OFFSET -1.784700 -0.561700 9.474800
							CHANNELS 3 Xrotation Yrotation Zrotation
							End Site
							{
								OFFSET 0 0 0
							}
						}
					}
				}
			}
		}
	}
	JOINT RightUpLeg_virtual
	{
		OFFSET 0.000000 0.000000 0.000000
		CHANNELS 3 Xrotation Yrotation Zrotation
		JOINT RightUpLeg
		{
			OFFSET -12.883000 -6.336304 -1.092800
			CHANNELS 3 Xrotation Yrotation Zrotation
			JOINT RightLeg
			{
				OFFSET -0.524587 -46.096825 9.782800
				CHANNELS 3 Xrotation Yrotation Zrotation
				JOINT RightFoot
				{
					OFFSET 0.524587 -53.427383 -12.948300
					CHANNELS 3 Xrotation Yrotation Zrotation
					JOINT RightToeBase
					{
						OFFSET -0.192200 -14.009700 16.364100
						CHANNELS 3 Xrotation Yrotation Zrotation
						JOINT RightToe_End
						{
							OFFSET 1.784700 -0.561700 9.474800
							CHANNELS 3 Xrotation Yrotation Zrotation
							End Site
							{
								OFFSET 0 0 0
							}
						}
					}
				}
			}
		}
	}
	JOINT Spine_virtual
	{
		OFFSET 0.000000 0.000000 0.000000
		CHANNELS 3 Xrotation Yrotation Zrotation
		JOINT Spine
		{
			OFFSET 0.072000 7.257294 -0.789700
			CHANNELS 3 Xrotation Yrotation Zrotation
			JOINT Spine1
			{
				OFFSET 0.000000 12.508769 -0.658067
				CHANNELS 3 Xrotation Yrotation Zrotation
				JOINT Spine1_split
				{
					OFFSET 0.000000 12.508769 -0.658067
					CHANNELS 3 Xrotation Yrotation Zrotation
					JOINT Spine2
					{
						OFFSET 0.000000 12.508769 -0.658067
						CHANNELS 3 Xrotation Yrotation Zrotation
						JOINT Neck_virtual
						{
							OFFSET 0.000000 0.000000 0.000000
							CHANNELS 3 Xrotation Yrotation Zrotation
							JOINT Neck
							{
								OFFSET 0.000000 14.033295 7.520400
								CHANNELS 3 Xrotation Yrotation Zrotation
								JOINT Head
								{
									OFFSET 0.000000 8.198502 5.703100
									CHANNELS 3 Xrotation Yrotation Zrotation
									JOINT HeadTop_End
									{
										OFFSET 0.000000 17.760803 13.332701
										CHANNELS 3 Xrotation Yrotation Zrotation
										End Site
										{
											OFFSET 0 0 0
										}
									}
								}
							}
						}
						JOINT LeftShoulder_virtual
						{
							OFFSET 0.000000 0.000000 0.000000
							CHANNELS 3 Xrotation Yrotation Zrotation
							JOINT LeftShoulder
							{
								OFFSET 6.292450 5.785301 -0.669000
								CHANNELS 3 Xrotation Yrotation Zrotation
								JOINT LeftShoulder_split
								{
									OFFSET 6.292450 5.785301 -0.669000
									CHANNELS 3 Xrotation Yrotation Zrotation
									JOINT LeftArm
									{
										OFFSET 13.907140 -6.093903 1.965100
										CHANNELS 3 Xrotation Yrotation Zrotation
										JOINT LeftForeArm
										{
											OFFSET 34.140198 0.000000 0.000000
											CHANNELS 3 Xrotation Yrotation Zrotation
											JOINT LeftHand
											{
												OFFSET 40.960209 0.000000 0.000000
												CHANNELS 3 Xrotation Yrotation Zrotation
												End Site
												{
													OFFSET 0 0 0
												}
											}
										}
									}
								}
							}
						}
						JOINT RightShoulder_virtual
						{
							OFFSET 0.000000 0.000000 0.000000
							CHANNELS 3 Xrotation Yrotation Zrotation
							JOINT RightShoulder
							{
								OFFSET -6.292450 5.785301 -0.669000
								CHANNELS 3 Xrotation Yrotation Zrotation
								JOINT RightShoulder_split
								{
									OFFSET -6.292450 5.785301 -0.669000
									CHANNELS 3 Xrotation Yrotation Zrotation
									JOINT RightArm
									{
										OFFSET -13.907140 -6.093903 1.965100
										CHANNELS 3 Xrotation Yrotation Zrotation
										JOINT RightForeArm
										{
											OFFSET -34.140198 0.000000 0.000000
											CHANNELS 3 Xrotation Yrotation Zrotation
											JOINT RightHand
											{
												OFFSET -40.960209 0.000000 0.000000
												CHANNELS 3 Xrotation Yrotation Zrotation
												End Site
												{
													OFFSET 0 0 0
												}
											}
										}
									}
								}
							}
						}
					}
				}
			}
		}
	}
}
MOTION
Frames: 11
Frame Time: 0.03333333
4.417674 119.175423 -6.733751 0.000000 0.000000 0.000000 -2.661360 6.582844 0.062210 -12.171554 12.490307 7.541961 12.635386 -4.584301 3.542445 -0.449792 3.940735 -9.617711 0.961372 -3.200115 0.576082 0.000000 0.000000 0.000000 -2.287025 7.103143 0.189718 -9.230634 1.731259 1.199063 11.010596 2.705079 -1.914248 -2.832285 -4.694394 5.341160 2.674397 0.518506 -8.396398 0.000000 0.000000 0.000000 -2.807324 10.536025 -0.433774 2.801318 -4.235322 0.836679 4.174893 -0.964620 0.464999 0.173236 -0.637405 0.082187 0.000000 0.000000 0.000000 2.939647 0.612212 0.784645 -9.721686 6.371016 6.238280 2.385093 -15.222128 -4.553827 0.000000 0.000000 0.000000 2.339713 -0.687357 0.548045 1.422616 -0.261145 -0.839690 0.781365 -1.218845 -2.199718 0.621293 9.519592 -83.295714 12.868613 -24.754313 6.657487 0.000000 0.000000 0.000000 3.067270 -0.551164 0.959849 3.018695 -3.502402 4.837430 -5.536820 0.210091 -1.388570 0.325359 16.028702 75.822743 0.180285 13.226410 2.260215 0.000000 0.000000 0.000000 
4.664714 119.186981 -6.723745 0.000000 0.000000 0.000000 -2.630303 6.361741 0.015854 -11.997909 12.432208 7.320830 12.372434 -4.387057 3.633711 -1.032958 4.022356 -9.172901 1.222565 -3.208638 0.532147 0.000000 0.000000 0.000000 -2.335876 6.996542 0.113954 -9.099485 1.443875 1.123113 10.598078 2.524833 -1.840483 -3.099600 -4.591514 4.822407 3.444278 0.554744 -8.368095 0.000000 0.000000 0.000000 -2.644750 10.377081 -0.556082 2.639035 -4.157834 0.934599 4.239443 -0.977977 0.425396 0.206472 -0.644762 0.086116 0.000000 0.000000 0.000000 3.025948 0.604952 0.778540 -9.634902 6.397740 6.240124 2.308338 -15.045768 -4.560347 0.000000 0.000000 0.000000 2.362994 -0.700812 0.511904 1.452689 -0.287262 -0.793060 0.888418 -1.507286 -2.053439 0.576260 9.478999 -83.346920 12.857397 -24.843322 6.664333 0.000000 0.000000 0.000000 3.053313 -0.556459 0.976173 2.945522 -3.714631 4.643541 -5.641727 0.038416 -1.417235 -0.170836 16.375068 75.962277 0.123890 13.991594 2.109283 0.000000 0.000000 0.000000 
5.097821 119.197662 -6.631643 0.000000 0.000000 0.000000 -2.628122 6.109649 -0.067266 -11.730438 12.594374 7.118437 12.465503 -4.257315 3.705713 -1.603823 3.906995 -9.024688 1.797566 -3.224633 0.605340 0.000000 0.000000 0.000000 -2.434482 6.555460 0.020259 -9.108197 1.092608 0.867523 10.141981 2.577654 -1.702576 -2.786038 -4.234654 4.837614 3.111782 0.695335 -8.223934 0.000000 0.000000 0.000000 -2.581306 10.210097 -0.707056 2.507603 -3.967889 1.110532 4.282082 -0.985860 0.349011 0.220696 -0.643549 0.075550 0.000000 0.000000 0.000000 3.149212 0.602737 0.719551 -9.638554 6.389371 6.297098 2.205123 -14.793426 -4.422384 0.000000 0.000000 0.000000 2.382667 -0.708515 0.423292 1.444102 -0.346739 -0.606253 1.022987 -1.851355 -1.881662 0.498841 9.560096 -83.480368 12.837877 -24.931669 6.623993 0.000000 0.000000 0.000000 3.058593 -0.563648 0.947088 2.822298 -4.008130 4.325918 -5.653819 -0.214858 -1.345359 -0.849306 16.843117 76.230177 0.123283 14.753487 1.572779 0.000000 0.000000 0.000000 
5.679504 119.227600 -6.462507 0.000000 0.000000 0.000000 -2.671578 5.850487 -0.124940 -11.396230 12.993879 6.906434 12.814725 -4.137996 3.736087 -2.086657 3.625712 -9.066025 2.386621 -3.253984 0.831241 0.000000 0.000000 0.000000 -2.489760 5.965024 -0.047768 -8.990909 0.859968 0.511982 9.643850 2.758633 -1.517202 -2.344176 -3.807041 5.105653 2.103988 0.893299 -7.987927 0.000000 0.000000 0.000000 -2.616808 10.034881 -0.828593 2.431203 -3.719596 1.307810 4.309364 -0.987041 0.265577 0.205069 -0.643479 0.072731 0.000000 0.000000 0.000000 3.257956 0.601730 0.642527 -9.683906 6.362487 6.380839 2.176996 -14.515014 -4.144484 0.000000 0.000000 0.000000 2.381210 -0.711434 0.312449 1.408264 -0.424906 -0.365404 1.149869 -2.183763 -1.707826 0.466852 9.688902 -83.728079 12.817005 -25.015146 6.531039 0.000000 0.000000 0.000000 3.089442 -0.570444 0.896111 2.671742 -4.297387 3.946405 -5.619721 -0.380256 -1.263334 -1.565761 17.190575 76.607757 0.173458 15.412518 0.721244 0.000000 0.000000 0.000000 
6.371804 119.273735 -6.179674 0.000000 0.000000 0.000000 -2.745783 5.627517 -0.125329 -11.034903 13.525591 6.649907 13.184207 -3.958533 3.738481 -2.564992 3.293477 -9.057443 2.819996 -3.273740 1.164926 0.000000 0.000000 0.000000 -2.458507 5.369391 -0.116984 -8.604711 0.715125 0.143174 9.032929 2.798551 -1.314308 -2.236736 -3.593862 5.239086 1.598583 1.072940 -7.749738 0.000000 0.000000 0.000000 -2.702044 9.887917 -0.908094 2.430449 -3.478898 1.464294 4.318008 -0.982432 0.208150 0.183186 -0.637023 0.067392 0.000000 0.000000 0.000000 3.306868 0.598779 0.587049 -9.760742 6.348452 6.473070 2.317006 -14.193235 -3.773968 0.000000 0.000000 0.000000 2.347133 -0.713473 0.224115 1.348923 -0.532102 -0.135018 1.338712 -2.419894 -1.526723 0.524312 9.741943 -84.071993 12.822791 -25.138335 6.392838 0.000000 0.000000 0.000000 3.129808 -0.579050 0.851108 2.533292 -4.476030 3.574781 -5.570669 -0.414124 -1.172141 -2.248318 17.222419 77.052771 0.237488 16.023723 -0.307743 0.000000 0.000000 0.000000 
7.171740 119.348412 -5.801714 0.000000 0.000000 0.000000 -2.790132 5.453956 -0.086425 -10.553614 14.019128 6.292170 13.360538 -3.629382 3.759452 -3.154292 3.056262 -8.694441 3.161967 -3.267141 1.488996 0.000000 0.000000 0.000000 -2.396466 4.938179 -0.187898 -7.972162 0.578294 -0.268311 8.382954 2.619055 -1.074170 -2.532152 -3.649175 5.230178 1.913342 1.241885 -7.680213 0.000000 0.000000 0.000000 -2.744363 9.823987 -0.947417 2.529657 -3.298465 1.546858 4.293121 -0.970481 0.198564 0.155062 -0.574970 0.061530 0.000000 0.000000 0.000000 3.274771 0.594829 0.579336 -9.839769 6.380670 6.565408 2.697946 -13.756730 -3.330586 0.000000 0.000000 0.000000 2.274523 -0.713374 0.196636 1.278542 -0.677484 0.003236 1.607781 -2.523211 -1.339895 0.670194 9.635333 -84.443432 12.897491 -25.378184 6.239446 0.000000 0.000000 0.000000 3.155223 -0.583397 0.839435 2.424414 -4.456660 3.225325 -5.486763 -0.351561 -1.045837 -2.867187 16.829055 77.519198 0.280602 16.708644 -1.361029 0.000000 0.000000 0.000000 
8.083214 119.478943 -5.361586 0.000000 0.000000 0.000000 -2.797092 5.208434 -0.051981 -9.923839 14.220729 5.829325 13.376295 -3.252178 3.847322 -3.721546 2.993461 -8.065637 3.556509 -3.203388 1.703294 0.000000 0.000000 0.000000 -2.311165 4.754550 -0.232174 -7.243945 0.374774 -0.868253 7.864864 2.426284 -0.811672 -2.941798 -3.780178 5.662210 2.311925 1.456420 -7.970811 0.000000 0.000000 0.000000 -2.734118 9.808898 -0.927308 2.736262 -3.189331 1.522096 4.223535 -0.953191 0.250186 0.138088 -0.486329 0.066745 0.000000 0.000000 0.000000 3.161224 0.591998 0.635879 -9.909265 6.464789 6.676948 3.309368 -13.188481 -2.831304 0.000000 0.000000 0.000000 2.166768 -0.709375 0.251856 1.209213 -0.839181 0.052556 1.897924 -2.428235 -1.211967 0.847237 9.332620 -84.785542 13.051032 -25.713758 6.078809 0.000000 0.000000 0.000000 3.137648 -0.582628 0.871453 2.357478 -4.230560 2.916492 -5.381825 -0.242619 -0.909579 -3.457022 16.001902 77.974362 0.293070 17.517789 -2.302739 0.000000 0.000000 0.000000 
9.060550 119.635078 -4.947763 0.000000 0.000000 0.000000 -2.761964 4.952262 -0.048480 -9.213851 14.024831 5.292104 13.279150 -2.889815 3.983736 -4.267620 3.086097 -7.203113 3.992439 -3.086204 1.769435 0.000000 0.000000 0.000000 -2.289923 4.653284 -0.267218 -6.713308 0.090584 -1.653580 7.620720 2.360975 -0.554289 -3.065733 -3.741623 6.946293 2.240720 1.753252 -8.686735 0.000000 0.000000 0.000000 -2.706136 9.726064 -0.887087 3.052393 -3.153225 1.377288 4.090892 -0.936686 0.360955 0.119544 -0.419226 0.075426 0.000000 0.000000 0.000000 2.985613 0.589437 0.752545 -9.974105 6.591530 6.835720 4.072893 -12.514404 -2.281280 0.000000 0.000000 0.000000 2.042930 -0.700987 0.392690 1.134379 -0.979149 0.057322 2.112757 -2.177196 -1.188927 0.996045 8.850399 -85.020467 13.321682 -26.095670 5.960719 0.000000 0.000000 0.000000 3.069807 -0.578201 0.947427 2.336943 -3.835859 2.667713 -5.281277 -0.265790 -0.767209 -3.990846 14.945516 78.336717 0.259575 18.326731 -3.011635 0.000000 0.000000 0.000000 
10.085974 119.733902 -4.461611 0.000000 0.000000 0.000000 -2.677407 4.599349 -0.089525 -8.395760 13.500002 4.682970 13.223635 -2.591507 4.135751 -4.873237 3.214566 -6.152491 4.287855 -2.946263 1.696152 0.000000 0.000000 0.000000 -2.390184 4.569467 -0.292690 -6.672207 -0.242803 -2.567952 7.983929 2.461938 -0.268347 -2.693076 -3.450226 8.895924 2.017386 2.091461 -9.622102 0.000000 0.000000 0.000000 -2.734086 9.526461 -0.848664 3.458578 -3.190696 1.152754 3.883079 -0.929637 0.528898 0.105282 -0.385764 0.088173 0.000000 0.000000 0.000000 2.778011 0.587842 0.915886 -10.027226 6.726513 7.064144 4.873033 -11.834229 -1.673148 0.000000 0.000000 0.000000 1.919698 -0.691114 0.600243 1.054636 -1.081172 0.023484 2.134802 -1.830319 -1.258058 1.044235 8.261813 -85.112087 13.738388 -26.449259 5.950040 0.000000 0.000000 0.000000 2.949552 -0.576793 1.062083 2.363261 -3.377739 2.440966 -5.253872 -0.357979 -0.669082 -4.487985 13.852208 78.554333 0.160265 18.942973 -3.385386 0.000000 0.000000 0.000000 
11.096180 119.637344 -3.964067 0.000000 0.000000 0.000000 -2.640527 4.240370 -0.150335 -7.616212 12.749941 4.121683 13.450971 -2.495266 4.259762 -5.559217 3.213000 -5.163587 4.236896 -2.789533 1.503663 0.000000 0.000000 0.000000 -2.663101 4.519816 -0.307149 -7.381814 -0.481619 -3.502746 9.097839 2.602120 -0.007996 -2.098893 -3.078769 10.859807 2.013877 2.382710 -10.459011 0.000000 0.000000 0.000000 -2.864885 9.257531 -0.821302 3.968375 -3.288346 0.896073 3.618735 -0.947041 0.743803 0.109321 -0.385826 0.088157 0.000000 0.000000 0.000000 2.579616 0.576232 1.120624 -10.080318 6.830278 7.367565 5.519995 -11.202626 -1.083227 0.000000 0.000000 0.000000 1.796611 -0.692720 0.856124 0.978277 -1.118597 -0.020021 1.937275 -1.421528 -1.428118 0.908331 7.632148 -85.094048 14.310931 -26.665545 6.083776 0.000000 0.000000 0.000000 2.790243 -0.598287 1.212209 2.443477 -2.955273 2.217583 -5.263886 -0.413655 -0.619617 -4.970835 12.884391 78.597733 -0.035072 19.231823 -3.375196 0.000000 0.000000 0.000000 
12.089244 119.220055 -3.430372 0.000000 0.000000 0.000000 -2.799511 3.948975 -0.190539 -7.016921 12.005153 3.725660 14.228224 -2.624552 4.269416 -6.367939 2.931185 -4.401863 3.707795 -2.611696 1.221573 0.000000 0.000000 0.000000 -3.034120 4.516208 -0.342404 -8.696666 -0.453402 -4.201254 11.205210 2.281420 0.115013 -1.650135 -3.270133 11.687286 1.236282 2.662909 -10.971610 0.000000 0.000000 0.000000 -3.172909 8.993938 -0.830585 4.610135 -3.448429 0.649377 3.335750 -0.998042 0.988204 0.116419 -0.410991 0.087674 0.000000 0.000000 0.000000 2.437422 0.536942 1.368362 -10.101092 6.905422 7.731022 5.888563 -10.646186 -0.605459 0.000000 0.000000 0.000000 1.658740 -0.728534 1.139099 0.911131 -1.079938 -0.078090 1.682941 -1.169804 -1.616595 0.516838 7.027993 -85.018561 15.029698 -26.700939 6.372061 0.000000 0.000000 0.000000 2.607557 -0.663317 1.403266 2.564443 -2.682922 1.971171 -5.348942 -0.342641 -0.634002 -5.455860 12.178471 78.494979 -0.322229 19.211920 -2.993274 0.000000 0.000000 0.000000 
